<svg width="219" height="54" viewBox="0 0 219 54" fill="none" xmlns="http://www.w3.org/2000/svg">
<path d="M24.5743 2.24528L16.2087 10.6488C14.9743 11.8889 14.9789 13.8948 16.2189 15.1292L24.6225 23.4947C25.8625 24.7292 27.8685 24.7246 29.1029 23.4846L37.4684 15.081C38.7028 13.841 38.6983 11.835 37.4582 10.6006L29.0547 2.23511C27.8146 1.00069 25.8087 1.00524 24.5743 2.24528Z" fill="#B23CFD"/>
<mask id="mask0_39_705" style="mask-type:luminance" maskUnits="userSpaceOnUse" x="15" y="1" width="24" height="24">
<path d="M24.5733 2.24528L16.2078 10.6488C14.9734 11.8889 14.9779 13.8948 16.2179 15.1292L24.6215 23.4947C25.8615 24.7292 27.8675 24.7246 29.1019 23.4846L37.4674 15.081C38.7018 13.841 38.6973 11.835 37.4572 10.6006L29.0537 2.23511C27.8136 1.00069 25.8077 1.00524 24.5733 2.24528Z" fill="white"/>
</mask>
<g mask="url(#mask0_39_705)">
<path d="M19.1198 30.1501C18.4198 31.9466 17.7063 33.7378 17.0143 35.5378C16.7506 36.2227 16.4745 36.9103 16.3062 37.6211C16.1031 38.4788 16.3766 38.9491 17.1238 39.4069C17.4195 39.5877 17.7161 39.7935 17.9459 40.0473C18.6122 40.7848 18.402 41.524 17.4391 41.7414C16.3498 41.9872 15.2766 41.7734 14.2478 41.3967C14.0341 41.3183 13.8114 41.0395 13.7491 40.8097C13.375 39.4399 13.0624 38.0522 13.3875 36.6236C13.7767 34.9152 14.1917 33.2123 14.5916 31.5066C14.8045 30.599 15.0067 29.6896 15.2071 28.8088C11.6382 27.9974 8.26964 26.7388 5.00086 25.1472C4.74613 25.784 4.19837 25.8339 3.68801 25.9969C3.78598 26.4316 3.86169 26.8573 3.97926 27.2715C4.4335 28.8818 4.44152 30.4948 4.0995 32.1301C3.8127 33.5017 3.53303 34.8787 3.34955 36.2664C3.20259 37.3824 3.51255 38.42 4.40411 39.1816C5.11309 39.7872 5.83454 40.3813 6.83387 40.4864C7.43686 40.5496 7.75127 41.011 7.94187 41.5401C8.09596 41.9694 7.96859 42.2989 7.53751 42.4486C7.12512 42.592 6.68157 42.6579 6.24603 42.722C4.99819 42.9064 3.95432 42.4975 3.15004 41.5401C2.50519 40.7714 1.8835 39.9805 1.29744 39.1664C0.529678 38.1012 0.0629635 36.9157 0.0896838 35.577C0.102153 34.9696 0.153812 34.363 0.168954 33.7556C0.186767 33.0439 0.244662 32.326 0.175189 31.6215C0.052276 30.3746 -0.689656 29.4501 -1.5741 28.6315C-1.99895 28.2378 -2.4425 27.8655 -2.83529 27.5209C-3.1114 28.1532 -3.30379 28.7927 -3.6458 29.3378C-4.8687 31.2866 -6.39354 32.97 -8.25237 34.3408C-9.45122 35.2243 -10.3864 36.3056 -10.7659 37.7841C-11.0037 38.7095 -11.1293 39.6314 -10.2457 40.3198C-9.79057 40.6752 -9.57859 41.117 -9.50555 41.6844C-9.40936 42.4236 -9.71931 42.795 -10.4782 42.7265C-11.3261 42.649 -12.0698 42.3203 -12.7636 41.8269C-13.4628 41.3299 -13.7202 40.6726 -13.6187 39.8514C-13.4575 38.5403 -13.2713 37.2328 -13.1208 35.9208C-12.9836 34.7228 -12.5285 33.6719 -11.7777 32.7349C-11.1373 31.9359 -10.5565 31.0809 -10.3205 30.0789C-9.92328 28.3973 -9.55009 26.7059 -9.27932 25.0011C-8.99342 23.2029 -9.00767 21.3636 -8.55788 19.5823C-8.48751 19.3035 -8.53472 18.9695 -8.61132 18.6836C-8.82062 17.8989 -9.47349 17.6709 -10.1745 17.5239C-11.6067 17.2229 -12.9551 16.7277 -14.1575 15.8664C-16.6746 14.0637 -17.2464 10.6675 -15.4446 8.16204C-13.8779 5.98345 -11.0812 5.37958 -8.81795 6.73251C-7.63246 7.4406 -7.31271 8.67507 -8.04128 9.79287C-8.3263 10.2302 -8.67277 10.6194 -9.14839 10.8777C-9.28199 10.2747 -9.37641 9.69757 -9.54029 9.1409C-9.86093 8.05249 -10.6643 7.82448 -11.5425 8.54503C-12.557 9.37692 -12.8741 11.2393 -12.231 12.4453C-11.3982 14.0084 -9.65519 14.7504 -7.94687 14.4538C-6.46568 14.1964 -5.00319 13.8196 -3.54427 13.45C-1.77004 13.0002 0.00952393 12.7561 1.83986 13.0278C4.37205 13.4037 6.898 13.8454 9.44355 14.0966C12.1191 14.3602 14.801 14.2988 17.3946 13.4117C18.0715 13.1801 18.7609 12.969 19.2454 12.3963C20.2269 11.2358 21.1969 10.0645 22.1802 8.90576C22.7226 8.26714 23.1947 7.54214 23.9526 7.13332C24.3864 6.89907 24.528 6.60604 24.4425 6.14199C24.2564 5.12752 24.6233 4.20211 24.9466 3.27669C25.1007 2.83581 25.5167 2.71468 25.84 2.97832C25.9647 3.07986 26.084 3.20455 26.1597 3.3435C26.3886 3.763 26.597 4.19409 26.8108 4.62161C26.9622 4.92444 27.1092 5.22816 27.2588 5.53188C27.5242 4.74453 27.6944 3.98389 27.9037 3.23394C27.9571 3.04245 28.1272 2.7512 28.2555 2.74407C28.4372 2.73427 28.699 2.90439 28.8059 3.07362C29.2717 3.81199 29.5612 4.66615 29.4463 5.50427C29.3483 6.22216 29.6209 6.53478 30.1473 6.81445C30.1785 6.83049 30.2096 6.84741 30.2372 6.86879C30.769 7.28206 31.3835 7.58934 31.771 8.1852C31.9349 8.43726 32.1798 8.67418 32.4425 8.81758C33.3742 9.32616 34.3254 9.80267 35.2785 10.2703C35.9189 10.5847 36.0988 11.0336 35.7639 11.6651C35.4637 12.2306 34.9828 12.6252 34.4225 12.9076C34.1188 13.0599 33.922 13.2603 33.8115 13.5809C33.5764 14.2632 33.0651 14.647 32.3633 14.6506C31.6908 14.6542 31.0005 14.6132 30.3504 14.4556C29.335 14.2088 28.618 14.5304 28.0711 15.3703C27.3764 16.4373 27.0655 17.6174 26.9711 18.876C26.907 19.7257 26.8384 20.5807 26.6817 21.4162C26.3886 22.9802 25.7242 24.4186 25.0072 25.8259C24.5645 26.6952 24.3223 27.5173 24.593 28.5353C25.2174 30.8832 25.7536 33.2559 26.247 35.634C26.4937 36.8222 26.9649 37.8634 27.6774 38.8306C27.9892 39.2537 28.3365 39.4185 28.8433 39.3294C29.343 39.2421 29.8275 39.3223 30.1553 39.732C30.3985 40.0366 30.6051 40.3929 30.7351 40.759C30.9792 41.4474 30.7859 41.8224 30.0546 41.8972C29.2237 41.9818 28.3766 41.948 27.5394 41.9124C26.8108 41.8812 26.263 41.5125 25.9157 40.8543C25.7251 40.4926 25.506 40.1471 25.3002 39.7935C24.5423 38.4922 23.6917 37.2346 23.0486 35.8789C22.0386 33.7493 21.1684 31.5529 20.2367 29.3859C20.0996 29.068 19.9499 28.7553 19.7807 28.3866C19.5429 29.0216 19.3372 29.5881 19.1189 30.1483L19.1198 30.1501ZM31.005 12.8773C31.0103 12.8595 31.0157 12.8408 31.021 12.8229C31.6 12.8648 32.178 12.9182 32.757 12.9459C33.6022 12.9859 34.2159 12.5299 34.769 11.9626C34.9302 11.7969 34.9115 11.6553 34.6968 11.552C34.6336 11.5217 34.5713 11.4905 34.5071 11.4611C34.1322 11.291 34.0894 11.1636 34.2916 10.8171C34.3263 10.7575 34.3664 10.6996 34.4181 10.6185C33.9799 10.3932 33.5461 10.1821 33.1239 9.94874C32.6545 9.68955 32.1923 9.41522 31.7354 9.13466C31.6089 9.05628 31.4824 8.9494 31.4049 8.82471C30.834 7.91266 29.8988 7.44416 29.0535 6.86522C28.9573 6.79931 28.8309 6.753 28.7721 6.66304C28.7035 6.55616 28.6296 6.38515 28.6688 6.28628C28.9903 5.47399 28.8175 4.71335 28.4345 3.95004C28.2991 4.43724 28.1646 4.92444 28.0293 5.41164C27.9918 5.54613 27.966 5.68597 27.9135 5.81423C27.8146 6.05471 27.7006 6.30054 27.3951 6.32191C27.0914 6.34329 26.8776 6.1705 26.7494 5.91933C26.5588 5.54613 26.4056 5.15335 26.2212 4.7757C26.0235 4.37133 25.807 3.97498 25.5817 3.54212C24.919 4.5183 24.8398 7.42189 25.6627 8.07209C25.644 8.09792 25.6253 8.12375 25.6057 8.15047C25.3029 7.92334 24.9992 7.69533 24.6776 7.45485C23.8662 7.79152 23.355 8.51475 22.7983 9.1881C21.9709 10.1883 21.123 11.1716 20.3214 12.1915C19.5242 13.2042 18.4768 13.7243 17.2601 14.093C14.9096 14.8065 12.519 14.9793 10.1035 14.7815C8.02025 14.6114 5.94765 14.3041 3.87238 14.0405C2.76171 13.8998 1.65905 13.6744 0.54571 13.5747C-0.846414 13.4509 -2.19579 13.7822 -3.54071 14.1135C-4.96846 14.4662 -6.39086 14.8697 -7.8391 15.0986C-9.71219 15.3952 -11.302 14.7789 -12.4644 13.2282C-13.6178 11.6891 -13.4156 9.41522 -12.0146 8.10237C-11.4989 7.61962 -10.8914 7.35777 -10.1851 7.5546C-9.4147 7.76926 -9.05131 8.37135 -8.87496 9.10705C-8.8322 9.28697 -8.81083 9.47134 -8.77787 9.66194C-8.2693 9.16762 -8.18646 8.48358 -8.55788 7.91087C-8.82775 7.49404 -9.21074 7.21971 -9.66053 7.02109C-11.2833 6.30588 -13.2134 6.65324 -14.4087 7.9465C-15.7821 9.43304 -16.2284 11.1601 -15.5345 13.1026C-15.1578 14.1563 -14.3882 14.9062 -13.4815 15.5235C-12.6202 16.1095 -11.6583 16.4569 -10.6616 16.7357C-9.94287 16.937 -9.22321 17.1472 -8.52848 17.4179C-7.39198 17.8615 -6.71596 18.7397 -6.37929 19.8931C-6.18957 20.5442 -6.03192 21.2051 -5.81638 21.8473C-5.43161 22.9936 -4.71729 23.9528 -4.01633 24.9201C-3.03658 26.2739 -1.78786 27.3775 -0.647795 28.5816C0.50741 29.8028 0.979468 31.2492 0.861008 32.9139C0.79777 33.801 0.765706 34.6899 0.734533 35.5788C0.69089 36.8008 1.11663 37.8901 1.83006 38.8413C2.53637 39.7819 3.32996 40.6592 4.10484 41.5463C4.60184 42.1154 5.27697 42.1733 5.97793 42.1074C6.23356 42.0834 6.4972 42.095 6.74569 42.0397C6.95857 41.9916 7.15451 41.8714 7.35848 41.7832C7.19281 41.5677 7.03338 41.3477 6.85792 41.1402C6.82051 41.0956 6.72788 41.0938 6.6593 41.0805C5.04272 40.7661 3.85724 39.8309 3.0485 38.4432C2.5328 37.5579 2.56398 36.5496 2.74746 35.5681C2.96745 34.3853 3.21061 33.2051 3.4787 32.0321C3.89376 30.2143 3.68979 28.4534 3.21951 26.6649C2.80713 25.0991 2.58981 23.4808 2.29232 21.8847C2.2656 21.7422 2.28342 21.5916 2.30925 21.4438C2.60851 22.5197 2.91223 23.5948 3.20348 24.6734C3.40567 25.4215 3.54016 25.4803 4.31861 25.067C4.07278 24.8034 3.83675 24.5487 3.59983 24.2948C3.61854 24.2592 3.63724 24.2227 3.65595 24.1871C4.38897 24.4088 5.13981 24.5861 5.85057 24.8649C6.82853 25.2487 7.75928 25.7511 8.73992 26.127C9.86217 26.5571 11.0111 26.9179 12.1583 27.2813C13.0258 27.5565 13.8951 27.8424 14.784 28.025C15.9188 28.2583 17.0695 28.1301 18.2087 27.9787C18.6478 27.9208 19.0824 27.8335 19.5465 27.7542C19.1617 26.3452 18.7849 24.9673 18.4082 23.5894C18.434 23.5796 18.4598 23.5698 18.4857 23.5609C18.6148 23.8629 18.7475 24.163 18.8722 24.4667C19.6427 26.3478 20.3784 28.2441 21.1907 30.1074C22.1659 32.3447 23.1706 34.5697 24.2341 36.7661C24.6901 37.7084 25.3296 38.5608 25.8783 39.4586C26.0546 39.7471 26.2221 40.0437 26.3673 40.3483C26.6166 40.8747 26.9952 41.2435 27.5902 41.2666C28.3695 41.2969 29.1515 41.272 29.9317 41.2666C30.1633 41.2649 30.2141 41.1437 30.1286 40.9433C30.0644 40.7928 30.0146 40.636 29.9398 40.4917C29.7376 40.1034 29.4321 39.8567 28.9769 39.9698C28.0248 40.205 27.4592 39.6964 26.956 38.999C26.206 37.9596 25.8578 36.775 25.5906 35.5414C25.1043 33.2915 24.6304 31.0355 24.023 28.8177C23.6881 27.5966 23.9019 26.5598 24.4523 25.4892C25.0891 24.2521 25.6886 22.9873 25.9665 21.6139C26.1277 20.815 26.1998 19.9938 26.2479 19.1779C26.3272 17.8366 26.6158 16.5584 27.3105 15.4032C27.5723 14.9677 27.9161 14.5713 28.2724 14.2062C28.7917 13.6718 29.4588 13.6726 30.1419 13.7982C30.6585 13.8926 31.1751 13.996 31.6971 14.0476C32.1175 14.0895 32.5396 14.0405 32.9004 13.7697C33.0028 13.6931 33.115 13.6308 33.2237 13.5622C33.1889 13.531 33.1551 13.5007 33.1204 13.4696C32.4158 13.2718 31.7113 13.0732 31.0068 12.8755L31.005 12.8773ZM-10.5708 40.9255C-11.6628 40.1337 -11.6993 39.0346 -11.4356 37.8634C-11.0357 36.0883 -10.0123 34.7594 -8.54006 33.711C-6.62066 32.3439 -5.06465 30.6257 -3.96556 28.5344C-3.70815 28.0446 -3.64224 27.4469 -3.53447 26.8903C-3.50508 26.738 -3.60751 26.5304 -3.70637 26.3879C-4.36369 25.4367 -5.05218 24.5068 -5.70059 23.5502C-6.35613 22.5838 -6.60552 21.4563 -6.89499 20.3474C-7.07045 19.6749 -7.32785 19.0452 -7.9157 18.5277C-7.72688 19.5725 -8.16242 20.4845 -8.26128 21.4393C-8.38598 22.6498 -8.4501 23.8673 -8.6131 25.0715C-8.8803 27.0408 -9.18758 29.0127 -9.92239 30.8698C-10.2136 31.6064 -10.691 32.286 -11.1702 32.9264C-11.8008 33.7689 -12.2675 34.6552 -12.4092 35.7088C-12.5766 36.9478 -12.7503 38.1867 -12.9623 39.4185C-13.2312 40.9789 -12.4074 41.5543 -10.9707 41.9774C-10.7311 42.0478 -10.4666 42.0317 -10.1468 42.062C-10.194 41.5917 -10.1976 41.1963 -10.5699 40.9264L-10.5708 40.9255ZM17.9308 28.652C17.3839 28.7028 16.8353 28.7455 16.2866 28.7687C15.9873 28.7812 15.8475 28.872 15.7745 29.198C15.3309 31.1691 14.8464 33.1303 14.3921 35.0996C14.108 36.3305 13.8043 37.5659 13.9753 38.8449C14.051 39.4114 14.1864 39.9698 14.304 40.5292C14.3717 40.8507 14.6593 40.9478 14.9123 40.9843C15.5821 41.0796 16.2581 41.158 16.9332 41.1704C17.1728 41.1749 17.5567 41.0244 17.6262 40.8462C17.7429 40.5505 17.4106 40.3448 17.1728 40.1809C16.9332 40.0152 16.6642 39.8923 16.422 39.7293C15.672 39.2234 15.4912 38.4557 15.6569 37.6532C15.8208 36.8605 16.1165 36.09 16.4077 35.3303C17.098 33.5302 17.8221 31.7435 18.5266 29.9488C18.7083 29.4866 18.8696 29.0154 19.0593 28.4961C18.6407 28.5549 18.2871 28.6173 17.9299 28.6502L17.9308 28.652Z" fill="white"/>
<path d="M29.0805 9.60137C29.2559 9.49271 29.4795 9.41789 29.589 9.26292C29.6478 9.1783 29.5543 8.92001 29.4528 8.80956C29.3646 8.71337 29.1704 8.6813 29.0226 8.6813C28.9059 8.6813 28.7705 8.74989 28.6761 8.82827C28.546 8.93604 28.4472 9.08122 28.335 9.20947C28.5006 9.31636 28.6618 9.43125 28.8337 9.52655C28.8881 9.55684 28.9709 9.53546 29.0404 9.53724C29.0537 9.55862 29.0671 9.58 29.0805 9.60137Z" fill="white"/>
</g>
<path d="M30.2443 29.3987L38.9572 37.4415C40.2429 38.6283 42.2473 38.5482 43.4341 37.2625L51.4769 28.5496C52.6637 27.2639 52.5835 25.2596 51.2979 24.0728L42.585 16.0299C41.2993 14.8431 39.295 14.9233 38.1081 16.209L30.0653 24.9219C28.8785 26.2075 28.9587 28.2119 30.2443 29.3987Z" fill="#39C0ED"/>
<mask id="mask1_39_705" style="mask-type:luminance" maskUnits="userSpaceOnUse" x="29" y="15" width="24" height="24">
<path d="M30.2443 29.3987L38.9572 37.4415C40.2429 38.6284 42.2473 38.5482 43.4341 37.2625L51.4769 28.5496C52.6637 27.264 52.5835 25.2596 51.2979 24.0728L42.585 16.03C41.2993 14.8432 39.295 14.9233 38.1081 16.209L30.0653 24.9219C28.8785 26.2076 28.9587 28.2119 30.2443 29.3987Z" fill="white"/>
</mask>
<g mask="url(#mask1_39_705)">
<path d="M21.6359 32.8667C22.1338 31.5512 22.5088 30.257 23.0957 29.0689C24.9456 25.3253 29.4435 22.9054 33.6199 23.324C34.1517 23.3774 34.6754 23.5191 35.208 23.5618C35.4431 23.5805 35.7148 23.4995 35.9259 23.3846C36.2857 23.1877 36.5983 22.9036 36.9555 22.7005C37.6315 22.3167 38.3271 22.0049 38.5053 21.0955C38.5667 20.7829 38.9657 20.5371 39.2098 20.2601C39.4449 19.9929 39.6899 19.9822 39.9624 20.212C40.2804 20.481 40.6001 20.5825 40.927 20.2075C41.1613 19.9394 41.3991 19.9715 41.6787 20.1888C42.0199 20.4534 42.3877 20.6947 42.7716 20.8907C43.1092 21.0635 43.4761 21.2211 43.8466 21.2799C45.9264 21.6095 47.8591 22.2418 49.384 23.788C49.8721 24.2824 49.9326 24.8168 49.4062 25.2897C48.6465 25.972 47.8618 26.6533 46.9925 27.1788C45.4125 28.1354 43.8939 29.157 42.6024 30.4815C42.3619 30.7282 42.2132 31.0987 42.1116 31.4389C41.9584 31.9511 41.8693 32.4846 41.7785 33.0128C41.709 33.4189 41.5149 33.9266 41.6805 34.2125C41.8221 34.4574 42.4109 34.4174 42.7752 34.5679C43.0272 34.6721 43.2971 34.8422 43.4494 35.0595C43.7709 35.5209 43.5964 35.8202 43.0379 35.8353C41.1987 35.8843 39.3585 35.9253 37.5184 35.9662C37.3768 35.9698 37.2343 35.9466 37.0401 35.9324C37.2467 35.1611 37.5122 34.4111 37.1737 33.6932C35.8128 33.8678 34.5115 34.0807 33.2004 34.1885C32.0915 34.2793 30.9719 34.2419 29.8577 34.2757C29.6288 34.2829 29.4026 34.3568 29.1398 34.5394C30.0269 34.7246 30.8018 34.9509 30.9292 36.0411C30.7332 36.0687 30.5613 36.1105 30.3877 36.115C28.4861 36.1604 26.5836 36.1871 24.682 36.2495C24.2723 36.2628 24.0808 36.1203 23.9828 35.7445C23.7593 34.8903 23.3121 34.184 22.5132 33.7636C22.2309 33.6149 21.9076 33.5062 21.5914 33.4652C19.8367 33.2363 18.441 31.9511 18.1667 30.2775C17.8835 28.5496 18.7394 26.9633 20.4201 26.2134C20.9394 25.9818 21.513 25.8571 22.0723 25.7279C23.3219 25.4394 24.3302 24.8506 24.8913 23.6366C25.6056 22.0904 24.7711 20.0205 23.1679 19.4157C22.8232 19.2857 22.4464 19.2412 22.0999 19.1173C21.9637 19.0684 21.8666 18.908 21.7517 18.7985C21.8888 18.7228 22.0278 18.5767 22.1614 18.5821C23.753 18.6471 25.2939 19.9813 25.6324 21.5631C25.9931 23.2465 25.1986 25.0038 23.672 25.7235C23.0467 26.0174 22.3502 26.1661 21.6769 26.3505C20.5217 26.6667 19.4947 27.1699 18.9942 28.3349C18.0759 30.4708 19.3914 32.636 21.6359 32.8694V32.8667ZM28.2999 35.1397C28.6989 35.6821 29.3313 35.7997 30.1677 35.3846C29.4516 35.2947 28.8717 35.2225 28.2919 35.1495C28.3952 34.8689 28.4985 34.5884 28.601 34.3078C27.4351 33.9025 27.1456 33.9943 26.9942 34.8217C27.428 34.9277 27.8644 35.0337 28.2999 35.1397ZM42.7386 22.0967C42.5757 22.452 42.4118 22.5464 42.068 22.2979C41.383 21.8027 40.6545 21.3672 39.9597 20.8853C39.6542 20.6734 39.4512 20.7259 39.2321 21.0038C38.6513 21.7404 38.589 22.5705 39.0272 23.4398C39.1163 23.6161 39.0691 23.8602 39.0851 24.074C38.8909 23.9421 38.6326 23.8522 38.5168 23.6705C38.3449 23.3997 38.2737 23.0657 38.1134 22.6337C37.465 23.0711 36.8263 23.4416 36.2626 23.9038C35.9348 24.1728 35.648 24.245 35.2516 24.171C34.5631 24.0428 33.8684 23.886 33.1728 23.8664C29.9922 23.78 27.289 24.8907 25.0971 27.2091C23.7272 28.6574 22.8926 30.3879 22.4803 32.3234C22.4286 32.5674 22.4669 33.0012 22.6165 33.0911C23.6319 33.6959 24.234 34.5991 24.6303 35.6821C25.6261 35.6607 26.5987 35.6403 27.5705 35.6198C27.5731 35.5948 27.5758 35.569 27.5776 35.5441C27.0601 35.4496 26.5426 35.3543 26.018 35.2582C26.0278 35.17 26.0153 35.0996 26.0438 35.0524C26.2763 34.6632 26.5506 34.2953 26.7448 33.8883C26.9292 33.5026 27.1527 33.4269 27.5722 33.4911C30.2692 33.9043 32.9644 33.8402 35.6453 33.3387C36.3035 33.2158 36.9475 33.0208 37.7001 32.8337C37.7705 33.7324 37.8364 34.5616 37.9023 35.4016C38.6745 35.3855 39.4405 35.3695 40.2056 35.3526C40.2074 35.3312 40.2091 35.3098 40.2109 35.2884C39.6988 35.1878 39.1866 35.0871 38.6309 34.9776C38.7164 34.7701 38.7636 34.6133 38.8419 34.4735C40.601 31.349 43.0192 28.8774 46.1116 27.0479C47.0272 26.5064 47.8957 25.8704 48.7284 25.2069C49.3671 24.6983 49.327 24.4543 48.7365 23.9279C47.7113 23.014 46.5089 22.428 45.1818 22.1376C43.8377 21.8437 42.4643 21.6647 41.3839 20.6921C41.3599 20.6698 41.3064 20.6796 41.237 20.6707C41.2022 20.7277 41.1194 20.847 41.1265 20.8533C41.6476 21.2639 42.1749 21.6656 42.7395 22.0967H42.7386ZM41.3474 32.025C41.2993 31.9983 41.2521 31.9707 41.204 31.944C40.6269 32.7803 40.0506 33.6166 39.4627 34.469C40.0631 34.6765 40.5699 34.7603 40.9698 35.0123C41.5042 35.349 42.1651 35.4817 42.8829 35.1459C42.4331 35.08 42.0742 35.0025 41.7126 34.9794C41.2111 34.9464 40.9564 34.7522 41.0428 34.2089C41.1586 33.4839 41.2468 32.7536 41.3474 32.0259V32.025Z" fill="white"/>
<path d="M46.0218 22.9775C46.1598 23.2563 46.2934 23.4059 46.2854 23.5467C46.2792 23.6562 46.0957 23.7551 45.9906 23.8593C45.8819 23.7391 45.6958 23.625 45.6869 23.4977C45.678 23.3712 45.8472 23.2331 46.0218 22.9775Z" fill="white"/>
</g>
<path d="M24.585 30.1014L16.2195 38.505C14.9851 39.745 14.9896 41.7509 16.2297 42.9854L24.6332 51.3509C25.8733 52.5853 27.8792 52.5807 29.1136 51.3407L37.4791 42.9371C38.7135 41.6971 38.709 39.6912 37.469 38.4567L29.0654 30.0912C27.8254 28.8568 25.8194 28.8614 24.585 30.1014Z" fill="#FFA900"/>
<mask id="mask2_39_705" style="mask-type:luminance" maskUnits="userSpaceOnUse" x="15" y="29" width="24" height="24">
<path d="M24.585 30.1014L16.2195 38.505C14.9851 39.745 14.9896 41.751 16.2297 42.9854L24.6332 51.3509C25.8733 52.5853 27.8792 52.5808 29.1136 51.3407L37.4791 42.9372C38.7135 41.6971 38.709 39.6912 37.469 38.4568L29.0654 30.0913C27.8254 28.8568 25.8194 28.8614 24.585 30.1014Z" fill="white"/>
</mask>
<g mask="url(#mask2_39_705)">
<path d="M28.2444 44.7786C28.0564 46.3622 28.6256 47.5521 30.0578 48.303C30.2555 48.4063 30.4354 48.5434 30.6252 48.6628C33.0825 50.2188 35.3831 51.9458 37.0932 54.3578C39.2032 57.3335 40.5428 60.5355 40.2444 64.279C40.1901 64.9595 40.2658 65.6613 40.3727 66.3391C40.4698 66.9519 40.8572 67.2485 41.4762 67.2369C42.0516 67.2253 42.635 67.1701 43.1979 67.0561C47.3253 66.2198 49.8602 62.3133 48.9855 58.1903C48.3745 55.3108 46.717 53.2551 44.1313 51.9031C43.7733 51.7151 43.3752 51.5156 43.1374 51.211C42.9378 50.9545 42.8042 50.4896 42.9013 50.2063C42.9859 49.9596 43.4482 49.6701 43.719 49.6924C44.4653 49.7548 45.275 49.8216 45.9252 50.152C48.3086 51.3606 49.9189 53.3175 50.8399 55.806C52.1911 59.4533 51.9016 62.9581 49.5003 66.0879C47.3485 68.8927 44.3175 70.0987 40.8572 70.2403C37.8895 70.3614 34.9173 70.3837 31.9469 70.4469C29.0887 70.5075 26.2306 70.568 23.3724 70.6197C22.993 70.6268 22.6135 70.5778 22.2083 70.5538C22.2849 69.6489 22.6474 68.963 23.3626 68.6567C24.0021 68.3823 24.0342 67.9726 24.0083 67.4293C23.864 64.4331 23.1248 61.5749 22.0444 58.7898C21.1377 56.4517 20.4447 54.0558 20.1758 51.5495C19.6004 46.184 20.8963 41.4189 24.5873 37.3681C25.2784 36.6093 25.7434 35.6456 26.325 34.7852C26.6474 34.3087 26.9591 33.8161 27.3457 33.3957C27.531 33.1944 27.881 33.1428 28.1562 33.0234C28.2631 33.2835 28.4163 33.5356 28.4679 33.8063C28.5953 34.4726 28.6772 35.1477 28.7877 35.8905C28.997 35.7453 29.1039 35.6741 29.2081 35.5975C29.7042 35.2323 30.1807 34.8377 30.6991 34.5082C31.1239 34.2383 31.4312 34.4405 31.4116 34.9455C31.4027 35.1842 31.3502 35.4292 31.2709 35.6545C31.1257 36.0704 30.9467 36.4757 30.7801 36.8899C31.0678 37.0903 31.3662 37.2337 31.5764 37.4599C31.8739 37.7787 32.1562 38.1332 32.3557 38.518C32.7378 39.2537 33.0834 40.0108 33.3898 40.7803C33.5003 41.0582 33.5911 41.4884 33.4557 41.6924C33.0701 42.274 32.6185 42.8449 32.0814 43.2822C31.7839 43.5245 31.2522 43.5966 30.8434 43.5601C30.0703 43.4924 29.3087 43.2902 28.4341 43.1237C28.3673 43.7115 28.3076 44.245 28.2444 44.7786ZM27.4116 69.485C27.408 69.6302 27.4169 69.7762 27.4205 69.9642C27.6004 69.9695 27.7599 69.974 27.759 69.974C28.1803 69.3906 28.4368 68.7012 28.9186 68.4589C29.4236 68.2042 30.1442 68.3788 30.9022 68.3627C30.4631 67.986 30.0044 67.6466 29.6134 67.2423C29.1484 66.7604 28.7004 66.2509 28.3174 65.7032C26.9271 63.7152 27.7207 61.0877 29.9465 60.3965C30.5307 60.2148 31.2014 60.2077 31.8204 60.2594C32.924 60.352 33.9322 60.7849 34.8746 61.3638C34.2172 61.183 33.5679 60.9559 32.9008 60.8312C31.1524 60.5061 29.5314 61.5892 29.1529 63.309C28.9462 64.2469 29.1716 65.1465 29.7701 65.8377C30.92 67.1648 32.1972 68.3859 33.8663 69.0566C35.5987 69.7522 37.6748 69.1946 38.5513 67.8488C39.0964 67.0125 39.1952 66.0603 39.1739 65.1029C39.1142 62.3899 38.6484 59.7659 37.4557 57.2934C35.9852 54.2464 33.7906 51.8256 31.1311 49.7824C30.1255 49.0102 29.1217 48.229 28.1856 47.3767C26.7383 46.0576 26.7356 44.531 27.4517 42.7541C27.6102 42.3604 27.9629 42.2669 28.3379 42.3497C28.8643 42.4655 29.3818 42.6205 29.9001 42.7701C31.2014 43.1451 32.1295 42.8084 32.875 41.7316C33.1128 41.3878 33.0995 41.1215 32.8109 40.8489C32.3094 40.3751 31.8062 39.903 31.3003 39.4336C31.1284 39.2733 30.9458 39.1246 30.7632 38.9669C31.4579 38.3274 31.482 38.0335 30.9155 37.6184C30.8407 37.5632 30.7632 37.5089 30.6804 37.467C30.1994 37.2239 30.1068 36.8872 30.374 36.4125C30.4978 36.1925 30.545 35.9288 30.6269 35.6848C30.5931 35.6313 30.5592 35.5788 30.5254 35.5253C30.2448 35.6456 29.9358 35.7257 29.6882 35.8941C28.5312 36.6805 28.4163 36.6414 28.1713 35.2822C28.125 35.0248 28.0939 34.7629 28.0253 34.5118C27.9184 34.1225 27.6637 34.0308 27.3635 34.2989C27.1453 34.4931 26.9654 34.7398 26.8051 34.9874C26.1985 35.9235 25.6374 36.8899 25.0059 37.809C22.504 41.4465 21.2125 45.3985 21.5305 49.8732C21.7567 53.0609 22.4719 56.0919 23.7438 59.0133C24.5873 60.9496 24.9177 63.0142 25.0834 65.1055C25.2099 66.7052 25.3167 68.3057 25.4352 69.9544C25.8912 69.9446 26.3597 69.9348 26.9217 69.9232C26.9485 68.8499 27.0678 67.8194 26.9796 66.8058C26.8122 64.8748 26.5227 62.9546 26.2965 61.0289C26.2742 60.8419 26.3374 60.645 26.3615 60.4526L26.3472 60.466C27.1587 63.4186 27.4846 66.4282 27.4125 69.4859L27.4116 69.485Z" fill="white"/>
</g>
<path d="M10.6006 16.1788L2.23512 24.5824C1.0007 25.8224 1.00525 27.8284 2.24528 29.0628L10.6488 37.4283C11.8889 38.6627 13.8948 38.6582 15.1292 37.4181L23.4947 29.0146C24.7292 27.7745 24.7246 25.7686 23.4846 24.5342L15.081 16.1687C13.841 14.9342 11.835 14.9388 10.6006 16.1788Z" fill="#FA2771"/>
<mask id="mask3_39_705" style="mask-type:luminance" maskUnits="userSpaceOnUse" x="1" y="15" width="24" height="24">
<path d="M10.6006 16.1788L2.23512 24.5824C1.0007 25.8224 1.00525 27.8284 2.24528 29.0628L10.6488 37.4283C11.8889 38.6627 13.8948 38.6582 15.1292 37.4181L23.4947 29.0146C24.7292 27.7745 24.7246 25.7686 23.4846 24.5342L15.081 16.1687C13.841 14.9342 11.835 14.9388 10.6006 16.1788Z" fill="white"/>
</mask>
<g mask="url(#mask3_39_705)">
<path d="M10.7925 41.8447C9.39681 41.7797 8.08841 41.7004 6.77823 41.6683C6.31775 41.6568 5.8546 41.7681 5.39234 41.8144C4.97729 41.8563 4.56134 41.8848 4.09641 41.9231C4.10621 41.728 4.07681 41.5917 4.12402 41.492C4.43843 40.8302 4.25851 40.376 3.65107 39.9671C3.27164 39.7115 3.01157 39.2831 2.68291 38.9455C2.57514 38.8351 2.43263 38.7371 2.28745 38.6899C1.66041 38.4824 1.00577 38.3434 0.399219 38.0896C-0.43089 37.7422 -1.19954 38.0789 -1.97265 38.2259C-3.69788 38.5536 -5.4249 38.7264 -7.17775 38.5786C-7.37192 38.5626 -7.56341 38.5225 -7.90276 38.4708C-7.05216 37.9177 -6.32359 37.4448 -5.59591 36.9718C-8.61441 36.7518 -11.3452 37.6078 -13.9104 39.0613C-14.296 38.4111 -14.3325 37.2408 -14.0359 36.9166C-14.1125 36.7099 -14.2577 36.5158 -14.2337 36.3457C-14.1268 35.5663 -13.9843 34.7914 -13.8284 34.021C-13.7625 33.6959 -13.5523 33.6175 -13.2058 33.6977C-8.69813 34.7362 -4.38103 34.1519 -0.235831 32.1408C2.83076 30.6534 5.41817 28.6004 7.31887 25.7404C7.6021 25.3138 7.86307 24.8675 8.08485 24.4062C9.62215 21.2104 13.4423 20.4231 16.1419 22.7157C16.8776 23.34 17.7309 23.8263 18.6046 24.4275C18.2759 24.6858 17.9678 24.9228 17.6649 25.165C16.263 26.2899 15.5915 27.8771 14.8878 29.4625C14.1673 31.0844 13.4743 32.7393 12.5507 34.2463C11.2993 36.2878 9.37366 37.5659 7.09353 38.2945C6.98843 38.3283 6.86908 38.3345 6.77823 38.3907C6.62147 38.4868 6.38099 38.5991 6.36318 38.7291C6.34447 38.8681 6.5137 39.072 6.65175 39.1869C7.55579 39.9404 8.62994 40.3644 9.7326 40.7207C10.2118 40.8756 10.601 41.1081 10.7934 41.8447H10.7925ZM4.91761 38.1796C5.10821 38.184 5.25339 38.2107 5.38967 38.1867C8.84103 37.5828 11.4204 35.7614 12.972 32.6066C13.7567 31.0114 14.2884 29.2835 15.1524 27.7391C15.8266 26.5349 16.1009 25.3556 15.9424 24.0267C15.9317 23.9359 15.9201 23.8406 15.9335 23.7515C15.9976 23.3329 15.7812 23.0621 15.4801 22.8181C13.395 21.1303 9.91518 21.9061 8.70209 24.3046C8.30573 25.0884 7.86574 25.8624 7.35182 26.5723C5.84747 28.6502 3.95568 30.314 1.74948 31.626C-1.37144 33.4821 -4.70969 34.6418 -8.3668 34.6329C-9.90054 34.6293 -11.4343 34.3924 -12.9689 34.2811C-13.1283 34.2695 -13.4187 34.3639 -13.4419 34.4592C-13.579 35.0212 -13.6547 35.5984 -13.7723 36.2904C-13.0883 36.2762 -12.5067 36.2637 -11.9259 36.2513C-11.9197 36.3002 -11.9126 36.3501 -11.9063 36.3991C-12.3597 36.6307 -12.8104 36.8658 -13.2655 37.0938C-13.8453 37.3842 -13.9032 37.5899 -13.5372 38.2864C-10.6594 36.7589 -7.59815 36.1025 -4.35431 36.4294C-4.32403 36.4873 -4.29285 36.5461 -4.26257 36.604C-4.91633 37.0814 -5.56919 37.5597 -6.22295 38.0371C-5.99315 38.1377 -5.81145 38.1377 -5.63065 38.1297C-5.04369 38.1039 -4.4505 38.1199 -3.86978 38.0424C0.106187 37.5062 3.86127 36.3091 7.28769 34.1876C8.46071 33.4617 9.59721 32.6716 10.2421 31.3793C10.6455 30.5705 10.454 29.9168 9.66847 29.4688C9.46272 29.3512 9.21601 29.3031 9.01738 29.1775C8.90605 29.1072 8.85261 28.9433 8.77334 28.8212C8.90961 28.7892 9.05747 28.7081 9.17949 28.7357C9.40928 28.7892 9.63284 28.888 9.84393 28.9985C10.8744 29.5382 11.2254 30.5269 10.6812 31.5476C10.4006 32.0731 10.0363 32.5799 9.61681 33.0012C8.09999 34.5225 6.21978 35.4897 4.27098 36.3181C3.12201 36.8061 1.93207 37.2007 0.604964 37.695C1.32374 37.8803 1.91069 38.0112 2.48429 38.1894C2.69092 38.2535 2.89044 38.4005 3.0463 38.5572C3.46759 38.9803 3.85147 39.4399 4.27454 39.8612C4.51681 40.1016 4.80539 40.2958 5.03696 40.4811C4.91049 40.8044 4.80895 41.0653 4.70652 41.3263C4.75194 41.3593 4.79648 41.3931 4.8419 41.4261C5.21688 41.3138 5.58651 41.1402 5.96861 41.1063C6.3703 41.0707 6.78268 41.1704 7.0107 41.1927C6.275 40.6841 5.42173 40.1043 4.58183 39.5049C4.44555 39.4078 4.27722 39.2234 4.28256 39.0854C4.30215 38.5554 4.37697 38.0264 4.45713 37.5009C4.47049 37.4154 4.613 37.3486 4.69583 37.2737C4.76441 37.3664 4.87486 37.4519 4.89356 37.5543C4.9283 37.7449 4.91049 37.9462 4.91583 38.1787L4.91761 38.1796ZM9.46272 41.4029C9.49033 41.3388 9.51883 41.2747 9.54645 41.2096C9.4173 41.1562 9.28281 41.1134 9.159 41.0493C8.1757 40.5381 7.1915 40.0286 6.21532 39.5049C6.07727 39.431 5.93921 39.3045 5.86796 39.1673C5.56602 38.583 5.31307 38.5198 4.75284 38.9545C6.02294 40.3991 7.79716 40.7901 9.46272 41.4029ZM17.7157 24.4284C17.2953 24.1399 16.9203 23.8833 16.4572 23.5654C16.4723 24.2922 16.4848 24.8711 16.4991 25.5498C16.9408 25.1428 17.298 24.8132 17.7157 24.4275V24.4284Z" fill="white"/>
<path d="M13.8189 23.6883C13.655 23.8317 13.5206 24.0241 13.4422 24.0036C13.3077 23.9679 13.2097 23.7987 13.0957 23.6856C13.2106 23.5734 13.3104 23.405 13.4448 23.3694C13.5232 23.3489 13.6568 23.5431 13.8189 23.6883Z" fill="white"/>
</g>
<rect x="57.2773" width="1.14763" height="53.586" fill="white"/>
<path d="M63.7909 37V15.6655C63.7909 13.4324 64.5353 11.5714 66.0241 10.0826C67.5394 8.56729 69.3871 7.80962 71.567 7.80962C72.2582 7.80962 73.0957 7.94254 74.0793 8.20839C75.063 8.44766 75.8339 8.77997 76.3922 9.20533C76.9771 9.63069 77.4822 10.0561 77.9076 10.4814C78.0671 10.3219 78.2133 10.1757 78.3462 10.0428C78.4791 9.90984 78.8248 9.63069 79.383 9.20533C79.9679 8.77997 80.6458 8.47424 81.4168 8.28815C82.1878 8.07547 82.746 7.94254 83.0917 7.88938C83.4373 7.8362 83.8227 7.80962 84.2481 7.80962C86.4281 7.80962 88.2624 8.56729 89.7512 10.0826C91.2666 11.5714 92.0242 13.4324 92.0242 15.6655V37H88.2757V15.7054C88.2757 15.2534 88.2093 14.8547 88.0763 14.5091C87.97 14.1369 87.7307 13.6982 87.3585 13.1931C86.9864 12.6614 86.4812 12.2227 85.8432 11.8771C85.2052 11.5049 84.5272 11.3188 83.8094 11.3188C82.879 11.3188 82.0415 11.598 81.2972 12.1563C80.5794 12.688 80.1141 13.3127 79.9014 14.0305C79.6888 14.7483 79.5824 15.2933 79.5824 15.6655V37H75.8339V15.6655C75.8339 15.187 75.7276 14.6154 75.5149 13.9508C75.3288 13.2861 74.8769 12.688 74.1591 12.1563C73.4679 11.598 72.6836 11.3188 71.8063 11.3188C71.1417 11.3188 70.5169 11.4916 69.9321 11.8373C69.3472 12.1829 68.8022 12.7146 68.2971 13.4324C67.792 14.1502 67.5394 14.9078 67.5394 15.7054V37H63.7909ZM113.676 23.4017L103.148 31.6963L101.114 29.3435L109.249 22.8435C108.186 21.4079 106.71 20.6901 104.823 20.6901C103.44 20.6901 102.164 21.1021 100.994 21.9263C99.8513 22.7504 99.0405 23.6277 98.562 24.5582C98.0834 25.4621 97.8442 26.4324 97.8442 27.4693C97.8442 29.5429 98.6018 31.1779 100.117 32.3742C101.633 33.5439 103.108 34.1288 104.544 34.1288C106.431 34.1288 107.76 33.7035 108.531 32.8527C109.329 31.9754 109.781 31.4703 109.887 31.3374C110.02 31.1779 110.166 30.9652 110.326 30.6993L113.117 32.454C112.32 33.9427 111.15 35.1258 109.608 36.0031C108.093 36.8804 106.405 37.319 104.544 37.319C103.294 37.319 101.885 37.0532 100.317 36.5215C98.7746 35.9898 97.4321 34.8732 96.2889 33.1718C95.1458 31.4703 94.5742 29.5695 94.5742 27.4693C94.5742 26.6717 94.654 25.9007 94.8135 25.1564C94.973 24.3854 95.3452 23.3885 95.93 22.1655C96.5149 20.9426 97.5916 19.8394 99.1601 18.8557C100.729 17.8721 102.497 17.3802 104.464 17.3802C106.564 17.3802 108.425 17.9252 110.047 19.0152C111.695 20.0786 112.905 21.5408 113.676 23.4017ZM129.574 18.1778V21.8066C128.856 21.4345 128.218 21.1952 127.66 21.0888C127.101 20.9559 126.729 20.8762 126.543 20.8496C126.383 20.823 126.091 20.8097 125.666 20.8097C123.911 20.8097 122.276 21.4079 120.761 22.6042C119.245 23.7739 118.488 25.4089 118.488 27.5091C118.488 29.2638 119.112 30.7924 120.362 32.0951C121.638 33.3977 123.207 34.0491 125.067 34.0491C126.955 34.0491 128.537 33.3578 129.813 31.9754C131.089 30.593 131.727 28.8251 131.727 26.6717V8.28815H135.196V26.7116C135.196 30.0081 134.266 32.6002 132.405 34.4877C130.571 36.3487 128.111 37.2791 125.028 37.2791C122.077 37.2791 119.684 36.3487 117.85 34.4877C116.015 32.6268 115.098 30.2474 115.098 27.3496C115.098 24.4519 116.042 22.0725 117.929 20.2115C119.844 18.324 122.303 17.3802 125.307 17.3802C125.918 17.3802 126.609 17.4467 127.38 17.5796C128.151 17.686 128.882 17.8854 129.574 18.1778ZM138.679 37V17.779H142.109V37H138.679ZM137.842 10.5213C137.842 9.8035 138.094 9.19204 138.599 8.68693C139.104 8.18181 139.716 7.92925 140.434 7.92925C141.152 7.92925 141.763 8.18181 142.268 8.68693C142.773 9.19204 143.026 9.8035 143.026 10.5213C143.026 11.2125 142.773 11.8107 142.268 12.3158C141.763 12.8209 141.152 13.0735 140.434 13.0735C139.716 13.0735 139.104 12.8209 138.599 12.3158C138.094 11.8107 137.842 11.2125 137.842 10.5213ZM145.649 37V8.28815H149.278V20.6901L150.474 20.6502C153.611 20.6502 156.057 19.8128 157.812 18.1379C159.566 16.4631 160.444 14.323 160.444 11.7176V8.28815H164.192V11.0796C164.192 13.6317 163.594 15.8117 162.398 17.6195C161.228 19.4007 159.992 20.5704 158.689 21.1287C157.413 21.687 156.708 21.9927 156.575 22.0459C156.442 22.0991 156.097 22.2054 155.539 22.3649C155.672 22.4181 155.844 22.4846 156.057 22.5643C156.27 22.6441 157.041 23.003 158.37 23.641C159.699 24.2791 160.989 25.5684 162.238 27.5091C163.514 29.4233 164.152 31.4703 164.152 33.6503V37H160.444V33.4509C160.444 31.0317 159.5 28.8916 157.612 27.0306C155.751 25.1431 153.438 24.1993 150.674 24.1993H149.278V37H145.649ZM186.175 28.1073V37H182.706V28.2269C182.706 27.1104 182.56 26.1134 182.267 25.2361C181.975 24.3322 181.377 23.3087 180.473 22.1655C179.569 21.0224 178.12 20.4508 176.126 20.4508C174.265 20.4508 172.856 20.9692 171.899 22.006C170.942 23.0429 170.304 23.9733 169.985 24.7975C169.666 25.6216 169.507 26.4324 169.507 27.23C169.507 28.5858 169.892 29.8619 170.663 31.0582C171.461 32.228 172.378 33.0122 173.415 33.411C174.451 33.7832 175.342 34.0092 176.086 34.0889C176.964 34.0889 177.775 33.9959 178.519 33.8098C179.29 33.5971 180.008 33.2781 180.672 32.8527V36.362C179.29 36.9734 177.761 37.2791 176.086 37.2791C173.162 37.2791 170.73 36.3221 168.789 34.408C166.875 32.4672 165.918 30.1411 165.918 27.4294C165.918 26.1001 166.237 24.638 166.875 23.0429C167.513 21.4477 168.669 20.0653 170.344 18.8956C172.046 17.6993 173.946 17.1011 176.047 17.1011C179.077 17.1011 181.523 18.0847 183.384 20.052C185.245 22.0193 186.175 24.7044 186.175 28.1073ZM189.616 30.4601V11.8771H193.045V17.6993H197.073V20.8496H193.045V30.4601C193.045 31.4437 193.324 32.2546 193.882 32.8926C194.441 33.5307 195.198 33.9028 196.155 34.0092H197.073V37.0798C196.674 37.1595 196.288 37.1994 195.916 37.1994C194.507 37.1994 193.218 36.7209 192.048 35.7638C190.905 34.7801 190.214 33.7832 189.974 32.773C189.735 31.7362 189.616 30.9652 189.616 30.4601ZM198.806 37V8.28815H202.236V19.6134C203.352 18.6297 204.442 18.005 205.506 17.7391C206.595 17.4467 207.553 17.3005 208.377 17.3005C210.69 17.3005 212.644 18.098 214.239 19.6931C215.86 21.2617 216.671 23.2157 216.671 25.5551V37H213.242V25.7545C213.242 24.3189 212.75 23.1359 211.766 22.2054C210.783 21.2749 209.56 20.8097 208.098 20.8097C207.672 20.8097 207.34 20.823 207.101 20.8496C206.888 20.8762 206.37 21.0224 205.545 21.2882C204.748 21.5541 203.99 22.1257 203.272 23.003C202.581 23.8537 202.236 24.7975 202.236 25.8343V37H198.806Z" fill="white"/>
<path d="M72.1799 47.6474C72.1799 48.2674 72.0191 48.8245 71.6974 49.3186C71.3804 49.8127 70.9143 50.1996 70.2989 50.4793C69.6836 50.759 68.954 50.8989 68.1103 50.8989C67.0987 50.8989 66.2643 50.7078 65.607 50.3255C65.1408 50.0505 64.7609 49.6845 64.4672 49.2277C64.1782 48.7662 64.0337 48.3187 64.0337 47.8851C64.0337 47.6334 64.1199 47.419 64.2924 47.2418C64.4695 47.06 64.6933 46.9691 64.9637 46.9691C65.1828 46.9691 65.3669 47.039 65.5161 47.1789C65.6699 47.3187 65.8004 47.5262 65.9076 47.8012C66.0382 48.1275 66.178 48.4002 66.3272 48.6193C66.481 48.8384 66.6955 49.0202 66.9705 49.1648C67.2455 49.3046 67.6068 49.3745 68.0543 49.3745C68.6697 49.3745 69.1685 49.2323 69.5507 48.948C69.9376 48.659 70.1311 48.3 70.1311 47.8711C70.1311 47.5308 70.0262 47.2558 69.8164 47.046C69.6113 46.8316 69.3433 46.6684 69.0123 46.5566C68.686 46.4447 68.2478 46.3258 67.6977 46.1999C66.9612 46.0275 66.3435 45.827 65.8447 45.5986C65.3506 45.3655 64.9567 45.0508 64.663 44.6546C64.374 44.2537 64.2295 43.7572 64.2295 43.1652C64.2295 42.6012 64.3833 42.1 64.691 41.6618C64.9986 41.2236 65.4438 40.888 66.0265 40.6549C66.6092 40.4172 67.2945 40.2983 68.0823 40.2983C68.7116 40.2983 69.2547 40.3775 69.7116 40.536C70.1731 40.6899 70.5553 40.8973 70.8583 41.1584C71.1613 41.4148 71.3828 41.6851 71.5226 41.9695C71.6625 42.2539 71.7324 42.5312 71.7324 42.8016C71.7324 43.0487 71.6438 43.2724 71.4667 43.4729C71.2942 43.6687 71.0774 43.7666 70.8164 43.7666C70.5786 43.7666 70.3968 43.7083 70.2709 43.5918C70.1497 43.4706 70.0169 43.2748 69.8724 43.0044C69.6859 42.6175 69.4622 42.3168 69.2011 42.1024C68.94 41.8833 68.5205 41.7737 67.9425 41.7737C67.4064 41.7737 66.9728 41.8926 66.6419 42.1303C66.3155 42.3634 66.1524 42.6454 66.1524 42.9764C66.1524 43.1815 66.2083 43.3587 66.3202 43.5078C66.4321 43.657 66.5859 43.7852 66.7817 43.8924C66.9775 43.9996 67.1756 44.0836 67.3761 44.1442C67.5765 44.2048 67.9075 44.2933 68.369 44.4099C68.947 44.5451 69.4691 44.6942 69.9353 44.8574C70.4061 45.0205 70.8047 45.2187 71.131 45.4518C71.462 45.6848 71.7184 45.9808 71.9002 46.3398C72.0867 46.6941 72.1799 47.1299 72.1799 47.6474ZM79.1374 47.4866H75.4034C75.4081 47.9201 75.4943 48.3023 75.6621 48.6333C75.8346 48.9643 76.0607 49.2137 76.3404 49.3815C76.6248 49.5493 76.9371 49.6332 77.2774 49.6332C77.5058 49.6332 77.7133 49.6076 77.8997 49.5563C78.0909 49.5004 78.275 49.4165 78.4521 49.3046C78.6293 49.1881 78.7924 49.0645 78.9416 48.934C79.0908 48.8035 79.2842 48.6263 79.522 48.4026C79.6199 48.3187 79.7597 48.2767 79.9415 48.2767C80.1373 48.2767 80.2958 48.3303 80.417 48.4375C80.5382 48.5448 80.5988 48.6963 80.5988 48.892C80.5988 49.0645 80.5312 49.2673 80.3961 49.5004C80.2609 49.7288 80.0557 49.9502 79.7807 50.1647C79.5103 50.3745 79.1677 50.5493 78.7528 50.6891C78.3426 50.829 77.8694 50.8989 77.3333 50.8989C76.1073 50.8989 75.154 50.5493 74.4734 49.85C73.7928 49.1508 73.4525 48.2021 73.4525 47.0041C73.4525 46.44 73.5364 45.9179 73.7043 45.4378C73.8721 44.953 74.1168 44.5381 74.4385 44.1931C74.7601 43.8481 75.1564 43.5848 75.6272 43.403C76.098 43.2165 76.6201 43.1233 77.1935 43.1233C77.9394 43.1233 78.578 43.2818 79.1094 43.5987C79.6455 43.9111 80.0464 44.3166 80.3121 44.8154C80.5779 45.3142 80.7107 45.8224 80.7107 46.3398C80.7107 46.8199 80.5732 47.1323 80.2982 47.2768C80.0231 47.4166 79.6362 47.4866 79.1374 47.4866ZM75.4034 46.4027H78.8647C78.8181 45.7501 78.6409 45.263 78.3333 44.9413C78.0303 44.615 77.6294 44.4518 77.1306 44.4518C76.6551 44.4518 76.2635 44.6173 75.9558 44.9483C75.6528 45.2746 75.4687 45.7594 75.4034 46.4027ZM84.2209 48.1439V49.7381C84.2209 50.1251 84.13 50.4164 83.9482 50.6122C83.7664 50.8033 83.5357 50.8989 83.256 50.8989C82.9809 50.8989 82.7548 50.801 82.5777 50.6052C82.4006 50.4094 82.312 50.1204 82.312 49.7381V44.4239C82.312 43.5661 82.622 43.1372 83.242 43.1372C83.559 43.1372 83.7874 43.2375 83.9272 43.4379C84.0671 43.6384 84.144 43.9344 84.158 44.326C84.3864 43.9344 84.6195 43.6384 84.8572 43.4379C85.0997 43.2375 85.4213 43.1372 85.8222 43.1372C86.2231 43.1372 86.6124 43.2375 86.99 43.4379C87.3675 43.6384 87.5563 43.9041 87.5563 44.2351C87.5563 44.4681 87.4748 44.6616 87.3116 44.8154C87.1531 44.9646 86.9806 45.0392 86.7942 45.0392C86.7242 45.0392 86.5541 44.9972 86.2837 44.9133C86.018 44.8248 85.7826 44.7805 85.5775 44.7805C85.2978 44.7805 85.0694 44.8551 84.8922 45.0042C84.7151 45.1487 84.5775 45.3655 84.4797 45.6545C84.3818 45.9436 84.3142 46.2885 84.2769 46.6894C84.2396 47.0857 84.2209 47.5705 84.2209 48.1439ZM89.759 44.326L91.3043 48.6613L92.9685 44.1372C93.099 43.7736 93.2272 43.5172 93.3531 43.368C93.479 43.2142 93.6701 43.1372 93.9265 43.1372C94.1689 43.1372 94.374 43.2188 94.5418 43.382C94.7143 43.5451 94.8005 43.7339 94.8005 43.9484C94.8005 44.0323 94.7842 44.1302 94.7516 44.2421C94.7236 44.3539 94.6887 44.4588 94.6467 44.5567C94.6094 44.6546 94.5651 44.7665 94.5139 44.8924L92.6818 49.4375C92.6305 49.568 92.563 49.7335 92.479 49.9339C92.3998 50.1344 92.3089 50.3069 92.2063 50.4514C92.1084 50.5912 91.9849 50.7008 91.8357 50.78C91.6912 50.8593 91.5141 50.8989 91.3043 50.8989C91.0339 50.8989 90.8172 50.8383 90.654 50.7171C90.4955 50.5912 90.3766 50.456 90.2974 50.3115C90.2228 50.1623 90.0946 49.871 89.9128 49.4375L88.0948 44.9413C88.0528 44.8294 88.0085 44.7175 87.9619 44.6057C87.92 44.4938 87.8827 44.3796 87.85 44.263C87.8221 44.1465 87.8081 44.0463 87.8081 43.9624C87.8081 43.8318 87.8477 43.7036 87.9269 43.5778C88.0062 43.4472 88.1157 43.3424 88.2556 43.2631C88.3954 43.1792 88.5469 43.1372 88.7101 43.1372C89.0271 43.1372 89.2439 43.2281 89.3604 43.4099C89.4816 43.5918 89.6145 43.8971 89.759 44.326ZM98.08 44.2211V49.7381C98.08 50.1204 97.9891 50.4094 97.8073 50.6052C97.6255 50.801 97.3948 50.8989 97.1151 50.8989C96.8354 50.8989 96.6069 50.7987 96.4298 50.5982C96.2573 50.3978 96.1711 50.1111 96.1711 49.7381V44.277C96.1711 43.8994 96.2573 43.6151 96.4298 43.4239C96.6069 43.2328 96.8354 43.1372 97.1151 43.1372C97.3948 43.1372 97.6255 43.2328 97.8073 43.4239C97.9891 43.6151 98.08 43.8808 98.08 44.2211ZM97.136 42.2492C96.8703 42.2492 96.6419 42.1676 96.4508 42.0045C96.2643 41.8413 96.1711 41.6106 96.1711 41.3122C96.1711 41.0418 96.2666 40.8204 96.4578 40.6479C96.6535 40.4708 96.8796 40.3822 97.136 40.3822C97.3831 40.3822 97.6022 40.4615 97.7933 40.62C97.9844 40.7784 98.08 41.0092 98.08 41.3122C98.08 41.6059 97.9868 41.8366 97.8003 42.0045C97.6138 42.1676 97.3924 42.2492 97.136 42.2492ZM106.905 48.5354C106.905 48.7732 106.832 49.0272 106.688 49.2976C106.548 49.568 106.331 49.8267 106.037 50.0738C105.748 50.3162 105.382 50.512 104.94 50.6611C104.497 50.8103 103.998 50.8849 103.443 50.8849C102.264 50.8849 101.343 50.5423 100.681 49.857C100.019 49.1671 99.6883 48.2441 99.6883 47.088C99.6883 46.3048 99.8398 45.6126 100.143 45.0112C100.446 44.4099 100.884 43.946 101.457 43.6197C102.031 43.2887 102.716 43.1233 103.513 43.1233C104.007 43.1233 104.459 43.1955 104.87 43.34C105.285 43.4845 105.634 43.671 105.919 43.8994C106.208 44.1278 106.427 44.3726 106.576 44.6336C106.73 44.89 106.807 45.1301 106.807 45.3539C106.807 45.5823 106.72 45.7757 106.548 45.9342C106.38 46.0927 106.175 46.172 105.933 46.172C105.774 46.172 105.641 46.1324 105.534 46.0531C105.431 45.9692 105.315 45.8363 105.184 45.6545C104.951 45.3002 104.707 45.0345 104.45 44.8574C104.198 44.6802 103.877 44.5917 103.485 44.5917C102.921 44.5917 102.467 44.8131 102.122 45.256C101.777 45.6942 101.604 46.2955 101.604 47.06C101.604 47.419 101.649 47.7499 101.737 48.053C101.826 48.3513 101.954 48.6077 102.122 48.8221C102.289 49.0319 102.492 49.1927 102.73 49.3046C102.968 49.4118 103.229 49.4654 103.513 49.4654C103.895 49.4654 104.222 49.3769 104.492 49.1997C104.767 49.0226 105.01 48.7522 105.219 48.3886C105.336 48.1742 105.462 48.0063 105.597 47.8851C105.732 47.7639 105.898 47.7033 106.093 47.7033C106.326 47.7033 106.52 47.7919 106.674 47.969C106.828 48.1462 106.905 48.335 106.905 48.5354ZM110.485 44.2211V49.7381C110.485 50.1204 110.394 50.4094 110.212 50.6052C110.03 50.801 109.799 50.8989 109.52 50.8989C109.24 50.8989 109.012 50.7987 108.834 50.5982C108.662 50.3978 108.576 50.1111 108.576 49.7381V44.277C108.576 43.8994 108.662 43.6151 108.834 43.4239C109.012 43.2328 109.24 43.1372 109.52 43.1372C109.799 43.1372 110.03 43.2328 110.212 43.4239C110.394 43.6151 110.485 43.8808 110.485 44.2211ZM109.541 42.2492C109.275 42.2492 109.047 42.1676 108.855 42.0045C108.669 41.8413 108.576 41.6106 108.576 41.3122C108.576 41.0418 108.671 40.8204 108.862 40.6479C109.058 40.4708 109.284 40.3822 109.541 40.3822C109.788 40.3822 110.007 40.4615 110.198 40.62C110.389 40.7784 110.485 41.0092 110.485 41.3122C110.485 41.6059 110.391 41.8366 110.205 42.0045C110.018 42.1676 109.797 42.2492 109.541 42.2492ZM119.61 47.0181C119.61 47.5868 119.521 48.1112 119.344 48.5914C119.167 49.0715 118.911 49.4841 118.575 49.829C118.239 50.174 117.838 50.4397 117.372 50.6262C116.906 50.808 116.382 50.8989 115.799 50.8989C115.221 50.8989 114.701 50.8057 114.24 50.6192C113.778 50.4327 113.377 50.167 113.037 49.822C112.701 49.4724 112.445 49.0622 112.268 48.5914C112.095 48.1159 112.009 47.5914 112.009 47.0181C112.009 46.44 112.098 45.9109 112.275 45.4308C112.452 44.9506 112.706 44.5404 113.037 44.2001C113.368 43.8598 113.769 43.5987 114.24 43.4169C114.71 43.2305 115.23 43.1372 115.799 43.1372C116.377 43.1372 116.901 43.2305 117.372 43.4169C117.843 43.6034 118.246 43.8691 118.582 44.2141C118.918 44.559 119.172 44.9693 119.344 45.4448C119.521 45.9202 119.61 46.4447 119.61 47.0181ZM117.694 47.0181C117.694 46.2396 117.521 45.6336 117.176 45.2C116.836 44.7665 116.377 44.5497 115.799 44.5497C115.426 44.5497 115.097 44.6476 114.813 44.8434C114.529 45.0345 114.31 45.3189 114.156 45.6965C114.002 46.0741 113.925 46.5146 113.925 47.0181C113.925 47.5169 114 47.9527 114.149 48.3257C114.303 48.6986 114.519 48.9853 114.799 49.1857C115.083 49.3815 115.417 49.4794 115.799 49.4794C116.377 49.4794 116.836 49.2626 117.176 48.8291C117.521 48.3909 117.694 47.7872 117.694 47.0181ZM127.267 48.4026C127.267 48.9293 127.138 49.3815 126.882 49.7591C126.626 50.132 126.246 50.4164 125.742 50.6122C125.243 50.8033 124.635 50.8989 123.917 50.8989C123.232 50.8989 122.645 50.794 122.155 50.5842C121.666 50.3745 121.304 50.1134 121.071 49.8011C120.838 49.4841 120.722 49.1671 120.722 48.8501C120.722 48.6403 120.796 48.4608 120.945 48.3117C121.095 48.1625 121.283 48.0879 121.512 48.0879C121.712 48.0879 121.866 48.1369 121.973 48.2348C122.081 48.3326 122.183 48.4702 122.281 48.6473C122.477 48.9876 122.71 49.2417 122.98 49.4095C123.255 49.5773 123.628 49.6612 124.099 49.6612C124.481 49.6612 124.794 49.5773 125.036 49.4095C125.283 49.237 125.407 49.0412 125.407 48.8221C125.407 48.4865 125.278 48.2417 125.022 48.0879C124.77 47.9341 124.353 47.7872 123.77 47.6474C123.113 47.4842 122.577 47.3141 122.162 47.1369C121.752 46.9551 121.423 46.7174 121.176 46.4237C120.929 46.13 120.806 45.7687 120.806 45.3399C120.806 44.9576 120.92 44.5963 121.148 44.256C121.377 43.9157 121.712 43.6454 122.155 43.4449C122.603 43.2398 123.141 43.1372 123.77 43.1372C124.264 43.1372 124.707 43.1885 125.099 43.2911C125.495 43.3936 125.824 43.5312 126.085 43.7036C126.351 43.8761 126.551 44.0672 126.686 44.277C126.826 44.4868 126.896 44.6919 126.896 44.8924C126.896 45.1115 126.821 45.2909 126.672 45.4308C126.528 45.5706 126.32 45.6405 126.05 45.6405C125.854 45.6405 125.686 45.5846 125.546 45.4727C125.411 45.3608 125.255 45.193 125.078 44.9693C124.933 44.7828 124.763 44.6336 124.567 44.5218C124.372 44.4099 124.106 44.3539 123.77 44.3539C123.425 44.3539 123.139 44.4285 122.91 44.5777C122.682 44.7222 122.568 44.904 122.568 45.1231C122.568 45.3236 122.652 45.489 122.819 45.6196C122.987 45.7454 123.213 45.8503 123.498 45.9342C123.782 46.0181 124.174 46.1207 124.672 46.2419C125.264 46.3864 125.747 46.5589 126.12 46.7593C126.497 46.9598 126.782 47.1975 126.973 47.4726C127.169 47.743 127.267 48.053 127.267 48.4026ZM134.112 41.6618L136.434 48.5354L138.762 41.6129C138.883 41.2493 138.974 40.9975 139.035 40.8577C139.096 40.7132 139.196 40.585 139.336 40.4731C139.475 40.3566 139.667 40.2983 139.909 40.2983C140.086 40.2983 140.249 40.3426 140.398 40.4312C140.552 40.5197 140.671 40.6386 140.755 40.7878C140.844 40.9323 140.888 41.0791 140.888 41.2283C140.888 41.3309 140.874 41.4427 140.846 41.5639C140.818 41.6805 140.783 41.797 140.741 41.9136C140.699 42.0254 140.657 42.142 140.615 42.2632L138.133 48.962C138.044 49.2184 137.956 49.4631 137.867 49.6962C137.779 49.9246 137.676 50.1274 137.56 50.3045C137.443 50.477 137.287 50.6192 137.091 50.7311C136.9 50.8429 136.664 50.8989 136.385 50.8989C136.105 50.8989 135.867 50.8429 135.672 50.7311C135.48 50.6238 135.324 50.4817 135.203 50.3045C135.087 50.1227 134.984 49.9176 134.895 49.6892C134.807 49.4608 134.718 49.2184 134.63 48.962L132.189 42.3191C132.147 42.1979 132.103 42.079 132.056 41.9625C132.014 41.846 131.977 41.7201 131.945 41.5849C131.917 41.4497 131.903 41.3355 131.903 41.2423C131.903 41.0045 131.998 40.7878 132.189 40.592C132.38 40.3962 132.62 40.2983 132.91 40.2983C133.264 40.2983 133.513 40.4078 133.658 40.6269C133.807 40.8414 133.958 41.1863 134.112 41.6618ZM146.936 47.4866H143.202C143.207 47.9201 143.293 48.3023 143.461 48.6333C143.634 48.9643 143.86 49.2137 144.139 49.3815C144.424 49.5493 144.736 49.6332 145.076 49.6332C145.305 49.6332 145.512 49.6076 145.699 49.5563C145.89 49.5004 146.074 49.4165 146.251 49.3046C146.428 49.1881 146.591 49.0645 146.741 48.934C146.89 48.8035 147.083 48.6263 147.321 48.4026C147.419 48.3187 147.559 48.2767 147.741 48.2767C147.936 48.2767 148.095 48.3303 148.216 48.4375C148.337 48.5448 148.398 48.6963 148.398 48.892C148.398 49.0645 148.33 49.2673 148.195 49.5004C148.06 49.7288 147.855 49.9502 147.58 50.1647C147.309 50.3745 146.967 50.5493 146.552 50.6891C146.142 50.829 145.668 50.8989 145.132 50.8989C143.906 50.8989 142.953 50.5493 142.272 49.85C141.592 49.1508 141.252 48.2021 141.252 47.0041C141.252 46.44 141.335 45.9179 141.503 45.4378C141.671 44.953 141.916 44.5381 142.237 44.1931C142.559 43.8481 142.955 43.5848 143.426 43.403C143.897 43.2165 144.419 43.1233 144.993 43.1233C145.738 43.1233 146.377 43.2818 146.908 43.5987C147.445 43.9111 147.845 44.3166 148.111 44.8154C148.377 45.3142 148.51 45.8224 148.51 46.3398C148.51 46.8199 148.372 47.1323 148.097 47.2768C147.822 47.4166 147.435 47.4866 146.936 47.4866ZM143.202 46.4027H146.664C146.617 45.7501 146.44 45.263 146.132 44.9413C145.829 44.615 145.428 44.4518 144.93 44.4518C144.454 44.4518 144.063 44.6173 143.755 44.9483C143.452 45.2746 143.268 45.7594 143.202 46.4027ZM150.23 43.3051H150.44V42.1583C150.44 41.8506 150.447 41.6106 150.461 41.4381C150.479 41.2609 150.526 41.1094 150.6 40.9836C150.675 40.853 150.782 40.7481 150.922 40.6689C151.062 40.585 151.218 40.543 151.391 40.543C151.633 40.543 151.852 40.6339 152.048 40.8157C152.178 40.9369 152.26 41.0861 152.293 41.2633C152.33 41.4357 152.349 41.6828 152.349 42.0045V43.3051H153.048C153.318 43.3051 153.523 43.3703 153.663 43.5009C153.808 43.6267 153.88 43.7899 153.88 43.9903C153.88 44.2467 153.777 44.4262 153.572 44.5287C153.372 44.6313 153.083 44.6826 152.705 44.6826H152.349V48.1928C152.349 48.4911 152.358 48.7219 152.377 48.8851C152.4 49.0436 152.456 49.1741 152.544 49.2766C152.638 49.3745 152.787 49.4235 152.992 49.4235C153.104 49.4235 153.255 49.4048 153.446 49.3675C153.638 49.3256 153.787 49.3046 153.894 49.3046C154.048 49.3046 154.185 49.3675 154.306 49.4934C154.432 49.6146 154.495 49.7661 154.495 49.9479C154.495 50.2556 154.327 50.491 153.992 50.6542C153.656 50.8173 153.174 50.8989 152.544 50.8989C151.948 50.8989 151.496 50.7987 151.188 50.5982C150.88 50.3978 150.677 50.1204 150.579 49.7661C150.486 49.4118 150.44 48.9387 150.44 48.3466V44.6826H150.188C149.913 44.6826 149.703 44.6173 149.559 44.4868C149.414 44.3563 149.342 44.1908 149.342 43.9903C149.342 43.7899 149.416 43.6267 149.566 43.5009C149.719 43.3703 149.941 43.3051 150.23 43.3051ZM160.53 47.4866H156.796C156.8 47.9201 156.887 48.3023 157.055 48.6333C157.227 48.9643 157.453 49.2137 157.733 49.3815C158.017 49.5493 158.329 49.6332 158.67 49.6332C158.898 49.6332 159.106 49.6076 159.292 49.5563C159.483 49.5004 159.667 49.4165 159.845 49.3046C160.022 49.1881 160.185 49.0645 160.334 48.934C160.483 48.8035 160.677 48.6263 160.914 48.4026C161.012 48.3187 161.152 48.2767 161.334 48.2767C161.53 48.2767 161.688 48.3303 161.809 48.4375C161.931 48.5448 161.991 48.6963 161.991 48.892C161.991 49.0645 161.924 49.2673 161.788 49.5004C161.653 49.7288 161.448 49.9502 161.173 50.1647C160.903 50.3745 160.56 50.5493 160.145 50.6891C159.735 50.829 159.262 50.8989 158.726 50.8989C157.5 50.8989 156.546 50.5493 155.866 49.85C155.185 49.1508 154.845 48.2021 154.845 47.0041C154.845 46.44 154.929 45.9179 155.097 45.4378C155.264 44.953 155.509 44.5381 155.831 44.1931C156.152 43.8481 156.549 43.5848 157.02 43.403C157.49 43.2165 158.012 43.1233 158.586 43.1233C159.332 43.1233 159.97 43.2818 160.502 43.5987C161.038 43.9111 161.439 44.3166 161.705 44.8154C161.97 45.3142 162.103 45.8224 162.103 46.3398C162.103 46.8199 161.966 47.1323 161.691 47.2768C161.415 47.4166 161.029 47.4866 160.53 47.4866ZM156.796 46.4027H160.257C160.21 45.7501 160.033 45.263 159.726 44.9413C159.423 44.615 159.022 44.4518 158.523 44.4518C158.047 44.4518 157.656 44.6173 157.348 44.9483C157.045 45.2746 156.861 45.7594 156.796 46.4027ZM165.613 48.1439V49.7381C165.613 50.1251 165.522 50.4164 165.341 50.6122C165.159 50.8033 164.928 50.8989 164.648 50.8989C164.373 50.8989 164.147 50.801 163.97 50.6052C163.793 50.4094 163.704 50.1204 163.704 49.7381V44.4239C163.704 43.5661 164.014 43.1372 164.634 43.1372C164.951 43.1372 165.18 43.2375 165.32 43.4379C165.459 43.6384 165.536 43.9344 165.55 44.326C165.779 43.9344 166.012 43.6384 166.25 43.4379C166.492 43.2375 166.814 43.1372 167.215 43.1372C167.615 43.1372 168.005 43.2375 168.382 43.4379C168.76 43.6384 168.949 43.9041 168.949 44.2351C168.949 44.4681 168.867 44.6616 168.704 44.8154C168.545 44.9646 168.373 45.0392 168.187 45.0392C168.117 45.0392 167.946 44.9972 167.676 44.9133C167.41 44.8248 167.175 44.7805 166.97 44.7805C166.69 44.7805 166.462 44.8551 166.285 45.0042C166.107 45.1487 165.97 45.3655 165.872 45.6545C165.774 45.9436 165.707 46.2885 165.669 46.6894C165.632 47.0857 165.613 47.5705 165.613 48.1439ZM171.907 44.2211V49.7381C171.907 50.1204 171.816 50.4094 171.634 50.6052C171.452 50.801 171.221 50.8989 170.942 50.8989C170.662 50.8989 170.433 50.7987 170.256 50.5982C170.084 50.3978 169.998 50.1111 169.998 49.7381V44.277C169.998 43.8994 170.084 43.6151 170.256 43.4239C170.433 43.2328 170.662 43.1372 170.942 43.1372C171.221 43.1372 171.452 43.2328 171.634 43.4239C171.816 43.6151 171.907 43.8808 171.907 44.2211ZM170.963 42.2492C170.697 42.2492 170.468 42.1676 170.277 42.0045C170.091 41.8413 169.998 41.6106 169.998 41.3122C169.998 41.0418 170.093 40.8204 170.284 40.6479C170.48 40.4708 170.706 40.3822 170.963 40.3822C171.21 40.3822 171.429 40.4615 171.62 40.62C171.811 40.7784 171.907 41.0092 171.907 41.3122C171.907 41.6059 171.813 41.8366 171.627 42.0045C171.44 42.1676 171.219 42.2492 170.963 42.2492ZM175.62 44.1931V44.4239C175.955 43.981 176.321 43.657 176.717 43.4519C177.118 43.2421 177.577 43.1372 178.095 43.1372C178.598 43.1372 179.048 43.2468 179.444 43.4659C179.841 43.685 180.137 43.995 180.332 44.3959C180.458 44.629 180.54 44.8807 180.577 45.1511C180.615 45.4215 180.633 45.7664 180.633 46.186V49.7381C180.633 50.1204 180.545 50.4094 180.367 50.6052C180.195 50.801 179.969 50.8989 179.689 50.8989C179.405 50.8989 179.174 50.7987 178.997 50.5982C178.82 50.3978 178.731 50.1111 178.731 49.7381V46.5566C178.731 45.9272 178.643 45.4471 178.465 45.1161C178.293 44.7805 177.946 44.6127 177.424 44.6127C177.083 44.6127 176.773 44.7152 176.494 44.9203C176.214 45.1208 176.009 45.3981 175.878 45.7524C175.785 46.0368 175.738 46.5682 175.738 47.3467V49.7381C175.738 50.1251 175.648 50.4164 175.466 50.6122C175.289 50.8033 175.058 50.8989 174.773 50.8989C174.498 50.8989 174.272 50.7987 174.095 50.5982C173.918 50.3978 173.829 50.1111 173.829 49.7381V44.2211C173.829 43.8575 173.909 43.5871 174.067 43.4099C174.226 43.2281 174.442 43.1372 174.718 43.1372C174.885 43.1372 175.037 43.1769 175.172 43.2561C175.307 43.3354 175.414 43.4542 175.494 43.6127C175.578 43.7712 175.62 43.9647 175.62 44.1931ZM187.367 49.822C186.905 50.181 186.458 50.4514 186.024 50.6332C185.595 50.8103 185.113 50.8989 184.577 50.8989C184.087 50.8989 183.656 50.8033 183.283 50.6122C182.915 50.4164 182.631 50.153 182.43 49.822C182.23 49.4911 182.13 49.1321 182.13 48.7452C182.13 48.2231 182.295 47.7779 182.626 47.4096C182.957 47.0414 183.411 46.7943 183.99 46.6684C184.111 46.6405 184.411 46.5775 184.892 46.4796C185.372 46.3817 185.782 46.2932 186.122 46.2139C186.467 46.13 186.84 46.0298 187.241 45.9133C187.218 45.4098 187.115 45.0415 186.933 44.8084C186.756 44.5707 186.386 44.4518 185.822 44.4518C185.337 44.4518 184.971 44.5194 184.724 44.6546C184.481 44.7898 184.272 44.9926 184.094 45.263C183.922 45.5333 183.798 45.7128 183.724 45.8014C183.654 45.8853 183.5 45.9272 183.262 45.9272C183.048 45.9272 182.861 45.8596 182.703 45.7245C182.549 45.5846 182.472 45.4075 182.472 45.193C182.472 44.8574 182.591 44.5311 182.829 44.2141C183.067 43.8971 183.437 43.636 183.941 43.4309C184.444 43.2258 185.071 43.1233 185.822 43.1233C186.661 43.1233 187.32 43.2235 187.8 43.4239C188.281 43.6197 188.619 43.9321 188.814 44.3609C189.015 44.7898 189.115 45.3585 189.115 46.0671C189.115 46.5146 189.113 46.8945 189.108 47.2069C189.108 47.5192 189.106 47.8665 189.101 48.2487C189.101 48.6077 189.159 48.9829 189.276 49.3745C189.397 49.7614 189.458 50.0108 189.458 50.1227C189.458 50.3185 189.364 50.498 189.178 50.6611C188.996 50.8196 188.789 50.8989 188.556 50.8989C188.36 50.8989 188.166 50.808 187.975 50.6262C187.784 50.4397 187.581 50.1717 187.367 49.822ZM187.241 47.06C186.961 47.1626 186.553 47.2721 186.017 47.3887C185.486 47.5005 185.118 47.5845 184.913 47.6404C184.707 47.6917 184.512 47.7966 184.325 47.9551C184.139 48.1089 184.045 48.3257 184.045 48.6054C184.045 48.8944 184.155 49.1414 184.374 49.3466C184.593 49.547 184.88 49.6472 185.234 49.6472C185.612 49.6472 185.959 49.5657 186.276 49.4025C186.598 49.2347 186.833 49.0202 186.982 48.7592C187.155 48.4702 187.241 47.9947 187.241 47.3327V47.06ZM192.954 48.1439V49.7381C192.954 50.1251 192.863 50.4164 192.681 50.6122C192.499 50.8033 192.269 50.8989 191.989 50.8989C191.714 50.8989 191.488 50.801 191.311 50.6052C191.134 50.4094 191.045 50.1204 191.045 49.7381V44.4239C191.045 43.5661 191.355 43.1372 191.975 43.1372C192.292 43.1372 192.52 43.2375 192.66 43.4379C192.8 43.6384 192.877 43.9344 192.891 44.326C193.119 43.9344 193.352 43.6384 193.59 43.4379C193.833 43.2375 194.154 43.1372 194.555 43.1372C194.956 43.1372 195.345 43.2375 195.723 43.4379C196.1 43.6384 196.289 43.9041 196.289 44.2351C196.289 44.4681 196.208 44.6616 196.045 44.8154C195.886 44.9646 195.714 45.0392 195.527 45.0392C195.457 45.0392 195.287 44.9972 195.017 44.9133C194.751 44.8248 194.516 44.7805 194.31 44.7805C194.031 44.7805 193.802 44.8551 193.625 45.0042C193.448 45.1487 193.31 45.3655 193.213 45.6545C193.115 45.9436 193.047 46.2885 193.01 46.6894C192.973 47.0857 192.954 47.5705 192.954 48.1439ZM199.247 44.2211V49.7381C199.247 50.1204 199.156 50.4094 198.974 50.6052C198.793 50.801 198.562 50.8989 198.282 50.8989C198.002 50.8989 197.774 50.7987 197.597 50.5982C197.424 50.3978 197.338 50.1111 197.338 49.7381V44.277C197.338 43.8994 197.424 43.6151 197.597 43.4239C197.774 43.2328 198.002 43.1372 198.282 43.1372C198.562 43.1372 198.793 43.2328 198.974 43.4239C199.156 43.6151 199.247 43.8808 199.247 44.2211ZM198.303 42.2492C198.037 42.2492 197.809 42.1676 197.618 42.0045C197.431 41.8413 197.338 41.6106 197.338 41.3122C197.338 41.0418 197.434 40.8204 197.625 40.6479C197.821 40.4708 198.047 40.3822 198.303 40.3822C198.55 40.3822 198.769 40.4615 198.96 40.62C199.152 40.7784 199.247 41.0092 199.247 41.3122C199.247 41.6059 199.154 41.8366 198.967 42.0045C198.781 42.1676 198.56 42.2492 198.303 42.2492ZM208.372 47.0181C208.372 47.5868 208.284 48.1112 208.107 48.5914C207.929 49.0715 207.673 49.4841 207.337 49.829C207.002 50.174 206.601 50.4397 206.135 50.6262C205.669 50.808 205.144 50.8989 204.561 50.8989C203.983 50.8989 203.464 50.8057 203.002 50.6192C202.541 50.4327 202.14 50.167 201.799 49.822C201.464 49.4724 201.207 49.0622 201.03 48.5914C200.858 48.1159 200.771 47.5914 200.771 47.0181C200.771 46.44 200.86 45.9109 201.037 45.4308C201.214 44.9506 201.468 44.5404 201.799 44.2001C202.13 43.8598 202.531 43.5987 203.002 43.4169C203.473 43.2305 203.993 43.1372 204.561 43.1372C205.139 43.1372 205.664 43.2305 206.135 43.4169C206.606 43.6034 207.009 43.8691 207.344 44.2141C207.68 44.559 207.934 44.9693 208.107 45.4448C208.284 45.9202 208.372 46.4447 208.372 47.0181ZM206.456 47.0181C206.456 46.2396 206.284 45.6336 205.939 45.2C205.599 44.7665 205.139 44.5497 204.561 44.5497C204.188 44.5497 203.86 44.6476 203.575 44.8434C203.291 45.0345 203.072 45.3189 202.918 45.6965C202.764 46.0741 202.687 46.5146 202.687 47.0181C202.687 47.5169 202.762 47.9527 202.911 48.3257C203.065 48.6986 203.282 48.9853 203.561 49.1857C203.846 49.3815 204.179 49.4794 204.561 49.4794C205.139 49.4794 205.599 49.2626 205.939 48.8291C206.284 48.3909 206.456 47.7872 206.456 47.0181ZM216.029 48.4026C216.029 48.9293 215.901 49.3815 215.644 49.7591C215.388 50.132 215.008 50.4164 214.505 50.6122C214.006 50.8033 213.398 50.8989 212.68 50.8989C211.994 50.8989 211.407 50.794 210.918 50.5842C210.428 50.3745 210.067 50.1134 209.834 49.8011C209.601 49.4841 209.484 49.1671 209.484 48.8501C209.484 48.6403 209.559 48.4608 209.708 48.3117C209.857 48.1625 210.046 48.0879 210.274 48.0879C210.475 48.0879 210.629 48.1369 210.736 48.2348C210.843 48.3326 210.946 48.4702 211.043 48.6473C211.239 48.9876 211.472 49.2417 211.743 49.4095C212.018 49.5773 212.391 49.6612 212.861 49.6612C213.244 49.6612 213.556 49.5773 213.798 49.4095C214.046 49.237 214.169 49.0412 214.169 48.8221C214.169 48.4865 214.041 48.2417 213.784 48.0879C213.533 47.9341 213.116 47.7872 212.533 47.6474C211.876 47.4842 211.339 47.3141 210.925 47.1369C210.514 46.9551 210.186 46.7174 209.939 46.4237C209.692 46.13 209.568 45.7687 209.568 45.3399C209.568 44.9576 209.682 44.5963 209.911 44.256C210.139 43.9157 210.475 43.6454 210.918 43.4449C211.365 43.2398 211.903 43.1372 212.533 43.1372C213.027 43.1372 213.47 43.1885 213.861 43.2911C214.258 43.3936 214.586 43.5312 214.847 43.7036C215.113 43.8761 215.313 44.0672 215.449 44.277C215.589 44.4868 215.658 44.6919 215.658 44.8924C215.658 45.1115 215.584 45.2909 215.435 45.4308C215.29 45.5706 215.083 45.6405 214.812 45.6405C214.617 45.6405 214.449 45.5846 214.309 45.4727C214.174 45.3608 214.018 45.193 213.84 44.9693C213.696 44.7828 213.526 44.6336 213.33 44.5218C213.134 44.4099 212.868 44.3539 212.533 44.3539C212.188 44.3539 211.901 44.4285 211.673 44.5777C211.444 44.7222 211.33 44.904 211.33 45.1231C211.33 45.3236 211.414 45.489 211.582 45.6196C211.75 45.7454 211.976 45.8503 212.26 45.9342C212.544 46.0181 212.936 46.1207 213.435 46.2419C214.027 46.3864 214.509 46.5589 214.882 46.7593C215.26 46.9598 215.544 47.1975 215.735 47.4726C215.931 47.743 216.029 48.053 216.029 48.4026Z" fill="white"/>
</svg>
